<svg width="133" height="18" viewBox="0 0 133 18" fill="none" xmlns="http://www.w3.org/2000/svg">
<g id="Group 28227">
<g id="Group 28223">
<path id="Vector" d="M31.2791 14.4608C30.3195 15.3455 29.075 15.7803 27.5756 15.7803C25.7164 15.7803 24.247 15.1805 23.1825 13.981C22.1179 12.7815 21.5781 11.1322 21.5781 9.04809C21.5781 6.78403 22.1779 5.04476 23.3924 3.81527C24.4419 2.75071 25.7914 2.21094 27.4107 2.21094C29.5848 2.21094 31.1891 2.93064 32.1937 4.35504C32.7485 5.16471 33.0483 5.95938 33.0933 6.76904H30.3945C30.2145 6.15429 29.9896 5.67449 29.7197 5.35963C29.2249 4.78986 28.5052 4.51998 27.5306 4.51998C26.5561 4.51998 25.7764 4.90981 25.2066 5.70448C24.6368 6.49915 24.352 7.62368 24.352 9.07808C24.352 10.5325 24.6518 11.612 25.2516 12.3467C25.8513 13.0814 26.616 13.4263 27.5456 13.4263C28.4753 13.4263 29.2249 13.1114 29.7197 12.4967C29.9896 12.1668 30.2295 11.657 30.4094 10.9973H33.0933C32.8534 12.4067 32.2687 13.5612 31.2941 14.4458L31.2791 14.4608Z" fill="#1F2129"/>
<path id="Vector_2" d="M35.5085 6.87276C36.1683 6.03311 37.3078 5.61328 38.9121 5.61328C39.9617 5.61328 40.8913 5.82319 41.701 6.24302C42.5106 6.66284 42.9155 7.44252 42.9155 8.59704V12.9902C42.9155 13.2901 42.9155 13.6649 42.9305 14.0997C42.9454 14.4296 42.9904 14.6545 43.0804 14.7745C43.1704 14.8944 43.2903 14.9844 43.4552 15.0593V15.4342H40.7264C40.6514 15.2393 40.5914 15.0593 40.5614 14.8944C40.5315 14.7295 40.5015 14.5346 40.4865 14.3097C40.1416 14.6845 39.7368 14.9994 39.287 15.2693C38.7472 15.5841 38.1325 15.7341 37.4577 15.7341C36.5881 15.7341 35.8684 15.4792 35.3136 14.9844C34.7589 14.4896 34.459 13.7849 34.459 12.8853C34.459 11.7007 34.9088 10.8611 35.8234 10.3213C36.3182 10.0364 37.0529 9.82653 38.0125 9.70658L38.8671 9.60162C39.332 9.54164 39.6618 9.46668 39.8567 9.37671C40.2166 9.22678 40.3965 8.98688 40.3965 8.67201C40.3965 8.28217 40.2616 8.01228 39.9917 7.86234C39.7218 7.71241 39.317 7.63744 38.7922 7.63744C38.2074 7.63744 37.7876 7.78738 37.5327 8.07226C37.3528 8.28217 37.2328 8.58204 37.1878 8.95689H34.7739C34.8338 8.11724 35.0587 7.42753 35.4786 6.88775L35.5085 6.87276ZM37.3678 13.605C37.6077 13.7999 37.8926 13.8898 38.2224 13.8898C38.7622 13.8898 39.257 13.7249 39.7068 13.41C40.1566 13.0952 40.3965 12.5104 40.4115 11.6858V10.7561C40.2466 10.8611 40.0966 10.9361 39.9317 10.996C39.7668 11.056 39.5569 11.116 39.272 11.161L38.7022 11.2659C38.1774 11.3559 37.8026 11.4758 37.5627 11.6108C37.1729 11.8357 36.9779 12.1955 36.9779 12.6753C36.9779 13.1102 37.0979 13.41 37.3378 13.605H37.3678Z" fill="#1F2129"/>
<path id="Vector_3" d="M52.0466 6.28938C52.7963 6.76918 53.2311 7.59384 53.3361 8.76335H50.8321C50.8021 8.44848 50.7122 8.19359 50.5622 7.99867C50.2923 7.65381 49.8125 7.48888 49.1528 7.48888C48.613 7.48888 48.2232 7.57884 47.9833 7.74378C47.7434 7.90871 47.6384 8.11862 47.6384 8.34353C47.6384 8.62841 47.7584 8.83832 48.0133 8.97326C48.2532 9.10821 49.1228 9.33311 50.6222 9.66298C51.6118 9.90288 52.3615 10.2477 52.8563 10.7275C53.3511 11.2073 53.591 11.8071 53.591 12.5268C53.591 13.4714 53.2311 14.2511 52.5264 14.8508C51.8217 15.4506 50.7272 15.7504 49.2578 15.7504C47.7884 15.7504 46.6339 15.4356 45.9292 14.7908C45.2245 14.1461 44.8496 13.3514 44.8496 12.3619H47.3836C47.4435 12.8117 47.5485 13.1265 47.7284 13.3065C48.0433 13.6363 48.613 13.8013 49.4527 13.8013C49.9475 13.8013 50.3373 13.7263 50.6222 13.5763C50.9071 13.4264 51.057 13.2165 51.057 12.9166C51.057 12.6167 50.9371 12.4218 50.7122 12.2719C50.4873 12.122 49.6026 11.8671 48.1033 11.5222C47.0237 11.2523 46.259 10.9225 45.8092 10.5176C45.3594 10.1128 45.1345 9.54303 45.1345 8.79334C45.1345 7.90871 45.4793 7.14403 46.1691 6.51429C46.8588 5.88455 47.8334 5.55469 49.0928 5.55469C50.3523 5.55469 51.2669 5.79459 52.0166 6.25939L52.0466 6.28938Z" fill="#1F2129"/>
<path id="Vector_4" d="M63.6188 9.79868V15.4213H61.0549V9.60376C61.0549 9.09398 60.9649 8.67415 60.785 8.35928C60.5601 7.90947 60.1253 7.68456 59.4805 7.68456C58.8358 7.68456 58.311 7.90947 57.9812 8.34429C57.6513 8.77911 57.4714 9.42384 57.4714 10.2335V15.4213H54.9824V2.51172H57.4714V7.08481C57.8312 6.53004 58.2511 6.14021 58.7309 5.9153C59.2107 5.69039 59.7055 5.58544 60.2302 5.58544C60.815 5.58544 61.3548 5.69039 61.8496 5.90031C62.3444 6.11022 62.7342 6.42509 63.0341 6.84491C63.304 7.20476 63.4539 7.56461 63.5139 7.95445C63.5738 8.34429 63.6038 8.94404 63.6038 9.79868H63.6188Z" fill="#1F2129"/>
<path id="Vector_5" d="M67.5476 2.39062V4.69966H65.0137V2.39062H67.5476ZM67.5476 5.83919V15.4202H65.0137V5.83919H67.5476Z" fill="#1F2129"/>
<path id="Vector_6" d="M77.8946 12.6147C77.8347 13.1845 77.5348 13.7543 77.01 14.339C76.1853 15.2686 75.0458 15.7334 73.5614 15.7334C72.3469 15.7334 71.2674 15.3436 70.3378 14.5489C69.4082 13.7543 68.9434 12.4798 68.9434 10.7255C68.9434 9.06121 69.3632 7.80174 70.2028 6.91711C71.0425 6.03248 72.137 5.59766 73.4715 5.59766C74.2661 5.59766 74.9858 5.74759 75.6306 6.04747C76.2753 6.34734 76.8001 6.81215 77.2049 7.45688C77.5798 8.02664 77.8197 8.68637 77.9396 9.43606C77.9996 9.87088 78.0296 10.5006 78.0146 11.3403H71.4623C71.4923 12.2999 71.7922 12.9746 72.3619 13.3644C72.7068 13.6043 73.1266 13.7243 73.6064 13.7243C74.1162 13.7243 74.536 13.5743 74.8659 13.2895C75.0458 13.1245 75.1958 12.9146 75.3307 12.6297H77.8946V12.6147ZM75.4207 9.67596C75.3757 9.01623 75.1808 8.50644 74.8209 8.17658C74.4611 7.84672 74.0112 7.66679 73.4865 7.66679C72.9017 7.66679 72.4519 7.84672 72.137 8.20657C71.8222 8.56642 71.6122 9.06121 71.5373 9.67596H75.4357H75.4207Z" fill="#1F2129"/>
<path id="Vector_7" d="M84.2674 8.14723C83.2629 8.14723 82.5881 8.47709 82.2433 9.13681C82.0484 9.51166 81.9584 10.0664 81.9584 10.8461V15.4192H79.4395V5.83819H81.8235V7.50249C82.2133 6.85776 82.5432 6.42294 82.828 6.19804C83.2929 5.8082 83.9076 5.61328 84.6573 5.61328C84.7023 5.61328 84.7472 5.61328 84.7772 5.61328C84.8072 5.61328 84.8822 5.61328 84.9871 5.61328V8.17721C84.8222 8.16222 84.6873 8.14723 84.5673 8.14723C84.4474 8.14723 84.3424 8.14723 84.2674 8.14723Z" fill="#1F2129"/>
</g>
<g id="Group">
<path id="Vector_8" d="M98.1199 15.4234H94.6414L90.638 9.77071L89.3486 11.0902V15.4234H86.6797V2.46875H89.3486V7.80653L94.3415 2.46875H97.835L92.5272 7.80653L98.1049 15.4234H98.1199Z" fill="#1F2129"/>
<path id="Vector_9" d="M101.837 2.39453V4.70357H99.3027V2.39453H101.837ZM101.837 5.8431V15.4241H99.3027V5.8431H101.837Z" fill="#1F2129"/>
<path id="Vector_10" d="M111.599 7.05734C112.409 8.07691 112.814 9.26142 112.814 10.6558C112.814 12.0503 112.409 13.2648 111.599 14.2693C110.79 15.2739 109.56 15.7687 107.911 15.7687C106.261 15.7687 105.032 15.2739 104.222 14.2693C103.413 13.2648 103.008 12.0653 103.008 10.6558C103.008 9.24643 103.413 8.07691 104.222 7.05734C105.032 6.03776 106.261 5.54297 107.911 5.54297C109.56 5.54297 110.79 6.05276 111.599 7.05734ZM107.911 7.65709C107.176 7.65709 106.621 7.91198 106.216 8.43676C105.812 8.96154 105.617 9.69624 105.617 10.6558C105.617 11.6154 105.812 12.3501 106.216 12.8749C106.621 13.3997 107.176 13.6546 107.911 13.6546C108.645 13.6546 109.2 13.3997 109.59 12.8749C109.98 12.3501 110.175 11.6154 110.175 10.6558C110.175 9.69624 109.98 8.96154 109.59 8.43676C109.2 7.91198 108.63 7.65709 107.911 7.65709Z" fill="#1F2129"/>
<path id="Vector_11" d="M121.179 6.29329C121.929 6.77309 122.364 7.59774 122.469 8.76726H119.965C119.935 8.45239 119.845 8.19749 119.695 8.00258C119.425 7.65772 118.945 7.49279 118.286 7.49279C117.746 7.49279 117.356 7.58275 117.116 7.74768C116.876 7.91261 116.771 8.12253 116.771 8.34743C116.771 8.63231 116.891 8.84223 117.146 8.97717C117.386 9.11211 118.256 9.33702 119.755 9.66688C120.745 9.90678 121.494 10.2516 121.989 10.7314C122.484 11.2112 122.724 11.811 122.724 12.5307C122.724 13.4753 122.364 14.255 121.659 14.8547C120.955 15.4545 119.86 15.7543 118.391 15.7543C116.921 15.7543 115.767 15.4395 115.062 14.7947C114.357 14.15 113.982 13.3553 113.982 12.3658H116.516C116.576 12.8156 116.681 13.1304 116.861 13.3104C117.176 13.6402 117.746 13.8052 118.586 13.8052C119.08 13.8052 119.47 13.7302 119.755 13.5803C120.04 13.4303 120.19 13.2204 120.19 12.9205C120.19 12.6207 120.07 12.4257 119.845 12.2758C119.62 12.1259 118.735 11.871 117.236 11.5261C116.157 11.2562 115.392 10.9264 114.942 10.5215C114.492 10.1167 114.267 9.54693 114.267 8.79724C114.267 7.91261 114.612 7.14793 115.302 6.51819C115.992 5.88846 116.966 5.55859 118.226 5.55859C119.485 5.55859 120.4 5.79849 121.149 6.2633L121.179 6.29329Z" fill="#1F2129"/>
<path id="Vector_12" d="M132.726 15.4252H129.698L127.404 11.332L126.369 12.4115V15.4252H123.91V2.51562H126.369V9.50271L129.488 5.90421H132.592L129.248 9.56269L132.726 15.4252Z" fill="#1F2129"/>
</g>
<path id="Vector_13" d="M1.73928 8.65889V12.6622C1.73928 13.3819 2.32403 13.9667 3.04373 13.9667C3.76343 13.9667 4.34819 13.3819 4.34819 12.6622V8.65889C4.34819 7.93919 3.76343 7.35444 3.04373 7.35444C2.32403 7.35444 1.73928 7.93919 1.73928 8.65889ZM6.94211 8.65889V12.6622C6.94211 13.3819 7.52686 13.9667 8.24656 13.9667C8.96626 13.9667 9.55102 13.3819 9.55102 12.6622V8.65889C9.55102 7.93919 8.96626 7.35444 8.24656 7.35444C7.52686 7.35444 6.94211 7.93919 6.94211 8.65889ZM1.30446 18H15.1737C15.8934 18 16.4781 17.4152 16.4781 16.6955C16.4781 15.9758 15.8934 15.3911 15.1737 15.3911H1.30446C0.584756 15.3911 0 15.9758 0 16.6955C0 17.4152 0.584756 18 1.30446 18ZM12.1449 8.65889V12.6622C12.1449 13.3819 12.7297 13.9667 13.4494 13.9667C14.1691 13.9667 14.7539 13.3819 14.7539 12.6622V8.65889C14.7539 7.93919 14.1691 7.35444 13.4494 7.35444C12.7297 7.35444 12.1449 7.93919 12.1449 8.65889ZM7.4369 0.202416L0.584756 3.81591C0.224906 3.99584 0 4.37068 0 4.77551C0 5.37526 0.4798 5.85506 1.07955 5.85506H15.3986C15.9833 5.85506 16.4781 5.37526 16.4781 4.77551C16.4781 4.37068 16.2532 4.01083 15.8934 3.81591L9.04123 0.202416C8.53145 -0.0674719 7.9317 -0.0674719 7.42191 0.202416H7.4369Z" fill="#466543"/>
</g>
</svg>
