<svg width="20" height="20" viewBox="0 0 20 20" fill="none" xmlns="http://www.w3.org/2000/svg">
<g id="content_paste_search_FILL1_wght400_GRAD0_opsz24">
<path id="Vector" d="M13.75 17.4987C12.7083 17.4987 11.8229 17.1341 11.0938 16.4049C10.3646 15.6758 10 14.7904 10 13.7487C10 12.707 10.3646 11.8216 11.0938 11.0924C11.8229 10.3633 12.7083 9.9987 13.75 9.9987C14.7917 9.9987 15.6771 10.3633 16.4063 11.0924C17.1354 11.8216 17.5 12.707 17.5 13.7487C17.5 14.1098 17.4479 14.457 17.3438 14.7904C17.2396 15.1237 17.0972 15.4431 16.9167 15.7487L18.5833 17.4154C18.7361 17.5681 18.8125 17.7626 18.8125 17.9987C18.8125 18.2348 18.7361 18.4293 18.5833 18.582C18.4306 18.7348 18.2361 18.8112 18 18.8112C17.7639 18.8112 17.5694 18.7348 17.4167 18.582L15.75 16.9154C15.4444 17.0959 15.125 17.2383 14.7917 17.3424C14.4583 17.4466 14.1111 17.4987 13.75 17.4987ZM13.75 15.832C14.3333 15.832 14.8264 15.6306 15.2292 15.2279C15.6319 14.8251 15.8333 14.332 15.8333 13.7487C15.8333 13.1654 15.6319 12.6723 15.2292 12.2695C14.8264 11.8668 14.3333 11.6654 13.75 11.6654C13.1667 11.6654 12.6736 11.8668 12.2708 12.2695C11.8681 12.6723 11.6667 13.1654 11.6667 13.7487C11.6667 14.332 11.8681 14.8251 12.2708 15.2279C12.6736 15.6306 13.1667 15.832 13.75 15.832ZM4.16667 17.4987C3.70833 17.4987 3.31597 17.3355 2.98958 17.0091C2.66319 16.6827 2.5 16.2904 2.5 15.832V4.16536C2.5 3.70703 2.66319 3.31467 2.98958 2.98828C3.31597 2.66189 3.70833 2.4987 4.16667 2.4987H7.64583C7.79861 2.01259 8.09722 1.61328 8.54167 1.30078C8.98611 0.988281 9.47222 0.832031 10 0.832031C10.5556 0.832031 11.0521 0.988281 11.4896 1.30078C11.9271 1.61328 12.2222 2.01259 12.375 2.4987H15.8333C16.2917 2.4987 16.684 2.66189 17.0104 2.98828C17.3368 3.31467 17.5 3.70703 17.5 4.16536V7.4987C17.5 7.73481 17.4201 7.93273 17.2604 8.09245C17.1007 8.25217 16.9028 8.33203 16.6667 8.33203C16.4306 8.33203 16.2326 8.25217 16.0729 8.09245C15.9132 7.93273 15.8333 7.73481 15.8333 7.4987V4.16536H14.1667V5.83203C14.1667 6.06814 14.0868 6.26606 13.9271 6.42578C13.7674 6.5855 13.5694 6.66536 13.3333 6.66536H6.66667C6.43056 6.66536 6.23264 6.5855 6.07292 6.42578C5.9132 6.26606 5.83333 6.06814 5.83333 5.83203V4.16536H4.16667V15.832H7.5C7.73611 15.832 7.93403 15.9119 8.09375 16.0716C8.25347 16.2313 8.33333 16.4293 8.33333 16.6654C8.33333 16.9015 8.25347 17.0994 8.09375 17.2591C7.93403 17.4188 7.73611 17.4987 7.5 17.4987H4.16667ZM10 4.16536C10.2361 4.16536 10.434 4.0855 10.5938 3.92578C10.7535 3.76606 10.8333 3.56814 10.8333 3.33203C10.8333 3.09592 10.7535 2.898 10.5938 2.73828C10.434 2.57856 10.2361 2.4987 10 2.4987C9.76389 2.4987 9.56597 2.57856 9.40625 2.73828C9.24653 2.898 9.16667 3.09592 9.16667 3.33203C9.16667 3.56814 9.24653 3.76606 9.40625 3.92578C9.56597 4.0855 9.76389 4.16536 10 4.16536Z" fill="#1F2129"/>
</g>
</svg>
