<svg width="20" height="20" viewBox="0 0 20 20" fill="none" xmlns="http://www.w3.org/2000/svg">
<g id="swap_vert_FILL1_wght400_GRAD0_opsz24">
<path id="Vector" d="M7.5 10.832C7.26389 10.832 7.06597 10.7522 6.90625 10.5924C6.74653 10.4327 6.66667 10.2348 6.66667 9.9987V4.85286L5.10417 6.41536C4.95139 6.56814 4.76042 6.64453 4.53125 6.64453C4.30208 6.64453 4.10417 6.56814 3.9375 6.41536C3.77083 6.2487 3.6875 6.05078 3.6875 5.82161C3.6875 5.59245 3.77083 5.39453 3.9375 5.22786L6.91667 2.2487C7 2.16536 7.09028 2.10634 7.1875 2.07161C7.28472 2.03689 7.38889 2.01953 7.5 2.01953C7.61111 2.01953 7.71528 2.03689 7.8125 2.07161C7.90972 2.10634 8 2.16536 8.08333 2.2487L11.0833 5.2487C11.25 5.41536 11.3299 5.60981 11.3229 5.83203C11.316 6.05425 11.2292 6.2487 11.0625 6.41536C10.8958 6.56814 10.7014 6.648 10.4792 6.65495C10.2569 6.66189 10.0625 6.58203 9.89583 6.41536L8.33333 4.85286V9.9987C8.33333 10.2348 8.25347 10.4327 8.09375 10.5924C7.93403 10.7522 7.73611 10.832 7.5 10.832ZM12.5 17.9779C12.3889 17.9779 12.2847 17.9605 12.1875 17.9258C12.0903 17.8911 12 17.832 11.9167 17.7487L8.91667 14.7487C8.75 14.582 8.67014 14.3876 8.67708 14.1654C8.68403 13.9431 8.77083 13.7487 8.9375 13.582C9.10417 13.4293 9.29861 13.3494 9.52083 13.3424C9.74306 13.3355 9.9375 13.4154 10.1042 13.582L11.6667 15.1445V9.9987C11.6667 9.76259 11.7465 9.56467 11.9062 9.40495C12.066 9.24523 12.2639 9.16536 12.5 9.16536C12.7361 9.16536 12.934 9.24523 13.0937 9.40495C13.2535 9.56467 13.3333 9.76259 13.3333 9.9987V15.1445L14.8958 13.582C15.0486 13.4293 15.2396 13.3529 15.4687 13.3529C15.6979 13.3529 15.8958 13.4293 16.0625 13.582C16.2292 13.7487 16.3125 13.9466 16.3125 14.1758C16.3125 14.4049 16.2292 14.6029 16.0625 14.7695L13.0833 17.7487C13 17.832 12.9097 17.8911 12.8125 17.9258C12.7153 17.9605 12.6111 17.9779 12.5 17.9779Z" fill="#1F2129"/>
</g>
</svg>
