<svg width="20" height="20" viewBox="0 0 20 20" fill="none" xmlns="http://www.w3.org/2000/svg">
<g id="settings_applications_FILL1_wght400_GRAD0_opsz24">
<path id="Vector" d="M8.91667 12.9167L9.04167 13.5208C9.08333 13.7153 9.17708 13.8715 9.32292 13.9896C9.46875 14.1076 9.63889 14.1667 9.83333 14.1667H10.1667C10.3611 14.1667 10.5312 14.1042 10.6771 13.9792C10.8229 13.8542 10.9167 13.6944 10.9583 13.5L11.0833 12.9167C11.25 12.8472 11.4062 12.7743 11.5521 12.6979C11.6979 12.6215 11.8472 12.5278 12 12.4167L12.6042 12.6042C12.7847 12.6597 12.9618 12.6528 13.1354 12.5833C13.309 12.5139 13.4444 12.4028 13.5417 12.25L13.7083 11.9583C13.8056 11.7917 13.8403 11.6111 13.8125 11.4167C13.7847 11.2222 13.6944 11.0625 13.5417 10.9375L13.0833 10.5417C13.1111 10.3472 13.125 10.1667 13.125 10C13.125 9.83333 13.1111 9.65278 13.0833 9.45833L13.5417 9.0625C13.6944 8.9375 13.7847 8.78125 13.8125 8.59375C13.8403 8.40625 13.8056 8.22917 13.7083 8.0625L13.5208 7.75C13.4236 7.59722 13.2917 7.48611 13.125 7.41667C12.9583 7.34722 12.7847 7.34028 12.6042 7.39583L12 7.58333C11.8472 7.47222 11.6979 7.37847 11.5521 7.30208C11.4062 7.22569 11.25 7.15278 11.0833 7.08333L10.9583 6.47917C10.9167 6.28472 10.8229 6.12847 10.6771 6.01042C10.5312 5.89236 10.3611 5.83333 10.1667 5.83333H9.83333C9.63889 5.83333 9.46875 5.89583 9.32292 6.02083C9.17708 6.14583 9.08333 6.30556 9.04167 6.5L8.91667 7.08333C8.75 7.15278 8.59375 7.22569 8.44792 7.30208C8.30208 7.37847 8.15278 7.47222 8 7.58333L7.39583 7.39583C7.21528 7.34028 7.03819 7.34722 6.86458 7.41667C6.69097 7.48611 6.55556 7.59722 6.45833 7.75L6.29167 8.04167C6.19444 8.20833 6.15972 8.38889 6.1875 8.58333C6.21528 8.77778 6.30556 8.9375 6.45833 9.0625L6.91667 9.45833C6.88889 9.65278 6.875 9.83333 6.875 10C6.875 10.1667 6.88889 10.3472 6.91667 10.5417L6.45833 10.9375C6.30556 11.0625 6.21528 11.2188 6.1875 11.4062C6.15972 11.5938 6.19444 11.7708 6.29167 11.9375L6.47917 12.25C6.57639 12.4028 6.70833 12.5139 6.875 12.5833C7.04167 12.6528 7.21528 12.6597 7.39583 12.6042L8 12.4167C8.15278 12.5278 8.30208 12.6215 8.44792 12.6979C8.59375 12.7743 8.75 12.8472 8.91667 12.9167ZM10 11.6667C9.54167 11.6667 9.14931 11.5035 8.82292 11.1771C8.49653 10.8507 8.33333 10.4583 8.33333 10C8.33333 9.54167 8.49653 9.14931 8.82292 8.82292C9.14931 8.49653 9.54167 8.33333 10 8.33333C10.4583 8.33333 10.8507 8.49653 11.1771 8.82292C11.5035 9.14931 11.6667 9.54167 11.6667 10C11.6667 10.4583 11.5035 10.8507 11.1771 11.1771C10.8507 11.5035 10.4583 11.6667 10 11.6667ZM4.16667 17.5C3.70833 17.5 3.31597 17.3368 2.98958 17.0104C2.66319 16.684 2.5 16.2917 2.5 15.8333V4.16667C2.5 3.70833 2.66319 3.31597 2.98958 2.98958C3.31597 2.66319 3.70833 2.5 4.16667 2.5H15.8333C16.2917 2.5 16.684 2.66319 17.0104 2.98958C17.3368 3.31597 17.5 3.70833 17.5 4.16667V15.8333C17.5 16.2917 17.3368 16.684 17.0104 17.0104C16.684 17.3368 16.2917 17.5 15.8333 17.5H4.16667Z" fill="#1F2129"/>
</g>
</svg>
