<svg width="32" height="32" viewBox="0 0 32 32" fill="none" xmlns="http://www.w3.org/2000/svg">
<rect width="32" height="32" rx="16" fill="white"/>
<path d="M13.4441 15.9987L18.9566 21.5112C19.1441 21.6987 19.2348 21.9175 19.2285 22.1675C19.2223 22.4175 19.1254 22.6362 18.9379 22.8237C18.7504 23.0112 18.5316 23.105 18.2816 23.105C18.0316 23.105 17.8129 23.0112 17.6254 22.8237L11.8504 17.0675C11.7004 16.9175 11.5879 16.7487 11.5129 16.5612C11.4379 16.3737 11.4004 16.1862 11.4004 15.9987C11.4004 15.8112 11.4379 15.6237 11.5129 15.4362C11.5879 15.2487 11.7004 15.08 11.8504 14.93L17.6254 9.15499C17.8129 8.96749 18.0348 8.87686 18.291 8.88311C18.5473 8.88936 18.7691 8.98624 18.9566 9.17374C19.1441 9.36124 19.2379 9.57999 19.2379 9.82999C19.2379 10.08 19.1441 10.2987 18.9566 10.4862L13.4441 15.9987Z" fill="#B0BCB0"/>
</svg>
