<svg width="20" height="20" viewBox="0 0 20 20" fill="none" xmlns="http://www.w3.org/2000/svg">
<g id="shopping_bag_FILL1_wght400_GRAD0_opsz24">
<path id="Vector" d="M5.00065 18.3346C4.54232 18.3346 4.14996 18.1714 3.82357 17.845C3.49718 17.5187 3.33398 17.1263 3.33398 16.668V6.66797C3.33398 6.20963 3.49718 5.81727 3.82357 5.49088C4.14996 5.1645 4.54232 5.0013 5.00065 5.0013H6.66732C6.66732 4.08464 6.99371 3.29991 7.64648 2.64714C8.29926 1.99436 9.08398 1.66797 10.0007 1.66797C10.9173 1.66797 11.702 1.99436 12.3548 2.64714C13.0076 3.29991 13.334 4.08464 13.334 5.0013H15.0007C15.459 5.0013 15.8513 5.1645 16.1777 5.49088C16.5041 5.81727 16.6673 6.20963 16.6673 6.66797V16.668C16.6673 17.1263 16.5041 17.5187 16.1777 17.845C15.8513 18.1714 15.459 18.3346 15.0007 18.3346H5.00065ZM8.33398 5.0013H11.6673C11.6673 4.54297 11.5041 4.15061 11.1777 3.82422C10.8513 3.49783 10.459 3.33464 10.0007 3.33464C9.54232 3.33464 9.14996 3.49783 8.82357 3.82422C8.49718 4.15061 8.33398 4.54297 8.33398 5.0013ZM12.5007 9.16797C12.7368 9.16797 12.9347 9.08811 13.0944 8.92838C13.2541 8.76866 13.334 8.57075 13.334 8.33463V6.66797H11.6673V8.33463C11.6673 8.57075 11.7472 8.76866 11.9069 8.92838C12.0666 9.08811 12.2645 9.16797 12.5007 9.16797ZM7.50065 9.16797C7.73676 9.16797 7.93468 9.08811 8.0944 8.92838C8.25412 8.76866 8.33398 8.57075 8.33398 8.33463V6.66797H6.66732V8.33463C6.66732 8.57075 6.74718 8.76866 6.9069 8.92838C7.06662 9.08811 7.26454 9.16797 7.50065 9.16797Z" fill="#1F2129"/>
</g>
</svg>
