<svg width="20" height="20" viewBox="0 0 20 20" fill="none" xmlns="http://www.w3.org/2000/svg">
<path d="M14.3182 12.593L11.8142 10.0846C11.9333 9.89657 12.0249 9.67041 12.0892 9.40614C12.1534 9.14188 12.1856 8.88121 12.1856 8.62415C12.1856 7.73665 11.8762 6.98353 11.2574 6.36478C10.6387 5.74603 9.88557 5.43665 8.99807 5.43665C8.73802 5.43665 8.48122 5.46641 8.22769 5.52592C7.97415 5.58543 7.74412 5.67945 7.53761 5.80798L5.38991 3.64603C5.82741 3.44603 6.39127 3.27103 7.0815 3.12103C7.77171 2.97103 8.44182 2.89603 9.09182 2.89603C10.7853 2.89603 12.3528 3.36002 13.7942 4.28801C15.2356 5.21599 16.3403 6.47619 17.1083 8.06859C17.1488 8.14005 17.176 8.22401 17.19 8.32048C17.204 8.41695 17.211 8.51818 17.211 8.62415C17.211 8.73013 17.204 8.83448 17.19 8.9372C17.176 9.03991 17.1488 9.12551 17.1083 9.19398C16.7803 9.87849 16.3803 10.5068 15.9083 11.0788C15.4363 11.6508 14.9062 12.1555 14.3182 12.593ZM14.8273 16.4091L12.1705 13.804C11.733 13.979 11.2377 14.1142 10.6848 14.2094C10.1318 14.3047 9.56953 14.3523 8.99807 14.3523C7.26411 14.3523 5.67164 13.8875 4.22068 12.958C2.76973 12.0286 1.65879 10.7676 0.887869 9.17523C0.847381 9.09426 0.820144 9.00866 0.806156 8.91845C0.792156 8.82823 0.785156 8.73013 0.785156 8.62415C0.785156 8.51818 0.795281 8.41308 0.815531 8.30887C0.835781 8.20466 0.859894 8.11831 0.887869 8.04984C1.15037 7.4963 1.48325 6.9554 1.88651 6.42714C2.28978 5.89888 2.76192 5.39575 3.30296 4.91776L1.37008 2.98488C1.25161 2.86939 1.19237 2.73291 1.19237 2.57544C1.19237 2.41796 1.25161 2.28148 1.37008 2.16599C1.48557 2.04752 1.62517 1.98828 1.7889 1.98828C1.95262 1.98828 2.09372 2.04752 2.2122 2.16599L15.6506 15.6045C15.7566 15.7104 15.8081 15.839 15.8051 15.9903C15.8021 16.1415 15.7506 16.2748 15.6506 16.3903C15.5447 16.5213 15.4098 16.5868 15.2461 16.5868C15.0824 16.5868 14.9428 16.5276 14.8273 16.4091ZM8.99807 11.8117C9.16411 11.8117 9.34189 11.796 9.53143 11.7648C9.72097 11.7335 9.88 11.6881 10.0085 11.6286L5.98462 7.61369C5.9281 7.75472 5.88496 7.9145 5.85519 8.09304C5.82544 8.27158 5.81057 8.44861 5.81057 8.62415C5.81057 9.52415 6.12307 10.2804 6.74807 10.8929C7.37307 11.5054 8.12307 11.8117 8.99807 11.8117ZM10.8637 9.13406L8.51057 6.78095C9.18693 6.50839 9.82497 6.63148 10.4247 7.15023C11.0244 7.66898 11.1708 8.33026 10.8637 9.13406Z" fill="#9D9D9D"/>
</svg>
