<svg width="20" height="20" viewBox="0 0 20 20" fill="none" xmlns="http://www.w3.org/2000/svg">
<g id="key_FILL1_wght400_GRAD0_opsz24">
<path id="Vector" d="M5.83398 12.5C5.13954 12.5 4.54926 12.2569 4.06315 11.7708C3.57704 11.2847 3.33398 10.6944 3.33398 10C3.33398 9.30556 3.57704 8.71528 4.06315 8.22917C4.54926 7.74306 5.13954 7.5 5.83398 7.5C6.52843 7.5 7.11871 7.74306 7.60482 8.22917C8.09093 8.71528 8.33399 9.30556 8.33399 10C8.33399 10.6944 8.09093 11.2847 7.60482 11.7708C7.11871 12.2569 6.52843 12.5 5.83398 12.5ZM5.83398 15C6.90343 15 7.86871 14.6944 8.72982 14.0833C9.59093 13.4722 10.1951 12.6667 10.5423 11.6667H10.834L11.9173 12.75C12.0007 12.8333 12.0909 12.8924 12.1882 12.9271C12.2854 12.9618 12.3895 12.9792 12.5007 12.9792C12.6118 12.9792 12.7159 12.9618 12.8132 12.9271C12.9104 12.8924 13.0007 12.8333 13.084 12.75L14.1673 11.6667L15.6257 12.8125C15.709 12.8819 15.8027 12.934 15.9069 12.9688C16.0111 13.0035 16.1187 13.0139 16.2298 13C16.3409 12.9861 16.4416 12.9549 16.5319 12.9062C16.6222 12.8576 16.702 12.7917 16.7715 12.7083L18.6465 10.5625C18.7159 10.4792 18.768 10.3889 18.8027 10.2917C18.8375 10.1944 18.8548 10.0903 18.8548 9.97917C18.8548 9.86806 18.834 9.76736 18.7923 9.67708C18.7507 9.58681 18.6951 9.50694 18.6257 9.4375L17.7715 8.58333C17.6882 8.5 17.5944 8.4375 17.4902 8.39583C17.3861 8.35417 17.2784 8.33333 17.1673 8.33333H10.5423C10.209 7.38889 9.62218 6.59722 8.7819 5.95833C7.94162 5.31944 6.95899 5 5.83398 5C4.4451 5 3.26454 5.48611 2.29232 6.45833C1.3201 7.43056 0.833984 8.61111 0.833984 10C0.833984 11.3889 1.3201 12.5694 2.29232 13.5417C3.26454 14.5139 4.4451 15 5.83398 15Z" fill="#9D9D9D"/>
</g>
</svg>
