<svg width="20" height="20" viewBox="0 0 20 20" fill="none" xmlns="http://www.w3.org/2000/svg">
<g id="person_FILL1_wght400_GRAD0_opsz48 1">
<path id="Vector" d="M10.0007 9.98047C9.08398 9.98047 8.33398 9.6888 7.75065 9.10547C7.16732 8.52214 6.87565 7.77214 6.87565 6.85547C6.87565 5.9388 7.16732 5.1888 7.75065 4.60547C8.33398 4.02214 9.08398 3.73047 10.0007 3.73047C10.9173 3.73047 11.6673 4.02214 12.2507 4.60547C12.834 5.1888 13.1257 5.9388 13.1257 6.85547C13.1257 7.77214 12.834 8.52214 12.2507 9.10547C11.6673 9.6888 10.9173 9.98047 10.0007 9.98047ZM3.33398 16.668V14.7096C3.33398 14.1819 3.46593 13.7305 3.72982 13.3555C3.99371 12.9805 4.33398 12.6957 4.75065 12.5013C5.68121 12.0846 6.57357 11.7721 7.42773 11.5638C8.2819 11.3555 9.13954 11.2513 10.0007 11.2513C10.8618 11.2513 11.7159 11.3589 12.5632 11.5742C13.4104 11.7895 14.2993 12.0985 15.2298 12.5013C15.6604 12.6957 16.0076 12.9805 16.2715 13.3555C16.5354 13.7305 16.6673 14.1819 16.6673 14.7096V16.668H3.33398Z" fill="#466543"/>
</g>
</svg>
