<svg width="20" height="20" viewBox="0 0 20 20" fill="none" xmlns="http://www.w3.org/2000/svg">
<g id="mystery_FILL1_wght400_GRAD0_opsz24 1">
<path id="Vector" d="M9.16602 15.0013C10.7771 15.0013 12.1521 14.4353 13.291 13.3034C14.4299 12.1714 14.9994 10.793 14.9994 9.16797C14.9994 7.55686 14.4299 6.18186 13.291 5.04297C12.1521 3.90408 10.7771 3.33464 9.16602 3.33464C7.54102 3.33464 6.16254 3.90408 5.0306 5.04297C3.89865 6.18186 3.33268 7.55686 3.33268 9.16797C3.33268 10.793 3.89865 12.1714 5.0306 13.3034C6.16254 14.4353 7.54102 15.0013 9.16602 15.0013ZM9.16602 16.668C8.12435 16.668 7.14866 16.4701 6.23893 16.0742C5.32921 15.6784 4.53754 15.1437 3.86393 14.4701C3.19032 13.7964 2.6556 13.0048 2.25977 12.0951C1.86393 11.1853 1.66602 10.2096 1.66602 9.16797C1.66602 8.14019 1.86393 7.17144 2.25977 6.26172C2.6556 5.352 3.19032 4.55686 3.86393 3.8763C4.53754 3.19575 5.32921 2.65755 6.23893 2.26172C7.14866 1.86589 8.12435 1.66797 9.16602 1.66797C10.1938 1.66797 11.1625 1.86589 12.0723 2.26172C12.982 2.65755 13.7771 3.19575 14.4577 3.8763C15.1382 4.55686 15.6764 5.352 16.0723 6.26172C16.4681 7.17144 16.666 8.14019 16.666 9.16797C16.666 10.0569 16.5202 10.8971 16.2285 11.6888C15.9369 12.4805 15.5341 13.2027 15.0202 13.8555L17.7494 16.5846C17.916 16.7513 17.9959 16.9457 17.9889 17.168C17.982 17.3902 17.8952 17.5846 17.7285 17.7513C17.5619 17.9041 17.3674 17.9805 17.1452 17.9805C16.923 17.9805 16.7285 17.9041 16.5619 17.7513L13.8327 15.043C13.1799 15.5569 12.4577 15.9562 11.666 16.2409C10.8744 16.5256 10.041 16.668 9.16602 16.668Z" fill="#B0BCB0"/>
</g>
</svg>
